# MagicaVoxel @ Ephtracy

# group
o 

# material
mtllib Monster.mtl
usemtl palette

# normals
vn -1 0 0
vn 1 0 0
vn 0 0 1
vn 0 0 -1
vn 0 -1 0
vn 0 1 0

# texcoords
vt 0.841797 0.5
vt 0.994141 0.5

# verts
v -0.5 0 0.5
v -0.5 0 -0.5
v -0.5 0.1 0.5
v -0.5 0.1 -0.5
v -0.3 0.1 0.5
v -0.3 0.1 -0.4
v -0.3 0.2 0.5
v -0.3 0.2 -0.4
v -0.2 0.2 0.5
v -0.2 0.2 -0.3
v -0.2 0.3 0.5
v -0.2 0.3 -0.3
v -0.1 0.3 0.4
v -0.1 0.3 -0.3
v -0.1 0.5 0.4
v -0.1 0.5 0.2
v -0.1 0.5 -0.1
v -0.1 0.5 -0.3
v -0.1 0.6 0.2
v -0.1 0.6 -0.1
v 0.1 0.3 0.4
v 0.1 0.3 -0.3
v 0.1 0.5 0.4
v 0.1 0.5 0.2
v 0.1 0.5 -0.1
v 0.1 0.5 -0.3
v 0.1 0.6 0.2
v 0.1 0.6 -0.1
v 0.2 0.2 0.5
v 0.2 0.2 -0.3
v 0.2 0.3 0.5
v 0.2 0.3 -0.3
v 0.3 0.1 0.5
v 0.3 0.1 -0.4
v 0.3 0.2 0.5
v 0.3 0.2 -0.4
v 0.5 0 0.5
v 0.5 0 -0.5
v 0.5 0.1 0.5
v 0.5 0.1 -0.5
v -0.5 0 0.5
v -0.5 0.1 0.5
v -0.4 0 0.5
v -0.4 0.1 0.5
v -0.3 0.1 0.5
v -0.3 0.2 0.5
v -0.2 0.2 0.5
v -0.2 0.3 0.5
v -0.1 0 0.5
v -0.1 0.2 0.5
v 0.1 0 0.5
v 0.1 0.2 0.5
v 0.2 0.2 0.5
v 0.2 0.3 0.5
v 0.3 0.1 0.5
v 0.3 0.2 0.5
v 0.4 0 0.5
v 0.4 0.1 0.5
v 0.5 0 0.5
v 0.5 0.1 0.5
v -0.1 0.3 0.4
v -0.1 0.5 0.4
v 0.1 0.3 0.4
v 0.1 0.5 0.4
v -0.1 0.5 0.2
v -0.1 0.6 0.2
v 0.1 0.5 0.2
v 0.1 0.6 0.2
v -0.1 0.5 -0.1
v -0.1 0.6 -0.1
v 0.1 0.5 -0.1
v 0.1 0.6 -0.1
v -0.2 0.2 -0.3
v -0.2 0.3 -0.3
v -0.1 0.3 -0.3
v -0.1 0.5 -0.3
v 0.1 0.3 -0.3
v 0.1 0.5 -0.3
v 0.2 0.2 -0.3
v 0.2 0.3 -0.3
v -0.3 0.1 -0.4
v -0.3 0.2 -0.4
v 0.3 0.1 -0.4
v 0.3 0.2 -0.4
v -0.5 0 -0.5
v -0.5 0.1 -0.5
v -0.4 0 -0.5
v -0.4 0.1 -0.5
v 0.4 0 -0.5
v 0.4 0.1 -0.5
v 0.5 0 -0.5
v 0.5 0.1 -0.5
v -0.5 0 0.5
v -0.4 0 0.5
v -0.1 0 0.5
v 0.1 0 0.5
v 0.4 0 0.5
v 0.5 0 0.5
v -0.1 0 0.4
v 0.1 0 0.4
v -0.5 0 -0.5
v -0.4 0 -0.5
v 0.4 0 -0.5
v 0.5 0 -0.5
v -0.5 0.1 0.5
v -0.4 0.1 0.5
v -0.3 0.1 0.5
v 0.3 0.1 0.5
v 0.4 0.1 0.5
v 0.5 0.1 0.5
v -0.3 0.1 -0.4
v 0.3 0.1 -0.4
v -0.5 0.1 -0.5
v -0.4 0.1 -0.5
v 0.4 0.1 -0.5
v 0.5 0.1 -0.5
v -0.3 0.2 0.5
v -0.2 0.2 0.5
v 0.2 0.2 0.5
v 0.3 0.2 0.5
v -0.2 0.2 -0.3
v 0.2 0.2 -0.3
v -0.3 0.2 -0.4
v 0.3 0.2 -0.4
v -0.2 0.3 0.5
v 0.2 0.3 0.5
v -0.1 0.3 0.4
v 0.1 0.3 0.4
v -0.2 0.3 -0.3
v -0.1 0.3 -0.3
v 0.1 0.3 -0.3
v 0.2 0.3 -0.3
v -0.1 0.5 0.4
v 0.1 0.5 0.4
v -0.1 0.5 0.2
v 0.1 0.5 0.2
v -0.1 0.5 -0.1
v 0.1 0.5 -0.1
v -0.1 0.5 -0.3
v 0.1 0.5 -0.3
v -0.1 0.6 0.2
v 0.1 0.6 0.2
v -0.1 0.6 -0.1
v 0.1 0.6 -0.1

# faces
f 3/2/1 2/2/1 1/2/1
f 4/2/1 2/2/1 3/2/1
f 7/1/1 6/1/1 5/1/1
f 8/1/1 6/1/1 7/1/1
f 11/1/1 10/1/1 9/1/1
f 12/1/1 10/1/1 11/1/1
f 15/1/1 14/1/1 13/1/1
f 16/1/1 14/1/1 15/1/1
f 17/1/1 14/1/1 16/1/1
f 18/1/1 14/1/1 17/1/1
f 19/1/1 17/1/1 16/1/1
f 20/1/1 17/1/1 19/1/1
f 21/1/2 22/1/2 23/1/2
f 23/1/2 22/1/2 24/1/2
f 24/1/2 22/1/2 25/1/2
f 25/1/2 22/1/2 26/1/2
f 24/1/2 25/1/2 27/1/2
f 27/1/2 25/1/2 28/1/2
f 29/1/2 30/1/2 31/1/2
f 31/1/2 30/1/2 32/1/2
f 33/1/2 34/1/2 35/1/2
f 35/1/2 34/1/2 36/1/2
f 37/2/2 38/2/2 39/2/2
f 39/2/2 38/2/2 40/2/2
f 43/2/3 42/2/3 41/2/3
f 44/2/3 42/2/3 43/2/3
f 45/1/3 44/1/3 43/1/3
f 47/1/3 46/1/3 45/1/3
f 49/1/3 45/1/3 43/1/3
f 49/1/3 48/1/3 47/1/3
f 49/1/3 47/1/3 45/1/3
f 50/1/3 48/1/3 49/1/3
f 51/2/3 50/2/3 49/2/3
f 52/1/3 48/1/3 50/1/3
f 52/2/3 50/2/3 51/2/3
f 53/1/3 52/1/3 51/1/3
f 53/1/3 48/1/3 52/1/3
f 54/1/3 48/1/3 53/1/3
f 55/1/3 53/1/3 51/1/3
f 56/1/3 53/1/3 55/1/3
f 57/1/3 55/1/3 51/1/3
f 58/1/3 55/1/3 57/1/3
f 59/2/3 58/2/3 57/2/3
f 60/2/3 58/2/3 59/2/3
f 63/1/3 62/1/3 61/1/3
f 64/1/3 62/1/3 63/1/3
f 67/1/3 66/1/3 65/1/3
f 68/1/3 66/1/3 67/1/3
f 69/1/4 70/1/4 71/1/4
f 71/1/4 70/1/4 72/1/4
f 73/1/4 74/1/4 75/1/4
f 73/1/4 75/1/4 77/1/4
f 75/1/4 76/1/4 77/1/4
f 77/1/4 76/1/4 78/1/4
f 73/1/4 77/1/4 79/1/4
f 79/1/4 77/1/4 80/1/4
f 81/1/4 82/1/4 83/1/4
f 83/1/4 82/1/4 84/1/4
f 85/2/4 86/2/4 87/2/4
f 87/2/4 86/2/4 88/2/4
f 87/1/4 88/1/4 89/1/4
f 89/1/4 88/1/4 90/1/4
f 89/2/4 90/2/4 91/2/4
f 91/2/4 90/2/4 92/2/4
f 99/1/5 95/1/5 94/1/5
f 99/2/5 96/2/5 95/2/5
f 100/1/5 97/1/5 96/1/5
f 100/2/5 96/2/5 99/2/5
f 101/2/5 94/2/5 93/2/5
f 102/1/5 99/1/5 94/1/5
f 102/2/5 94/2/5 101/2/5
f 102/1/5 100/1/5 99/1/5
f 103/1/5 97/1/5 100/1/5
f 103/1/5 100/1/5 102/1/5
f 103/2/5 98/2/5 97/2/5
f 104/2/5 98/2/5 103/2/5
f 106/1/6 107/1/6 111/1/6
f 108/1/6 109/1/6 112/1/6
f 105/2/6 106/2/6 113/2/6
f 111/1/6 112/1/6 114/1/6
f 113/2/6 106/2/6 114/2/6
f 106/1/6 111/1/6 114/1/6
f 109/2/6 110/2/6 115/2/6
f 114/1/6 112/1/6 115/1/6
f 112/1/6 109/1/6 115/1/6
f 115/2/6 110/2/6 116/2/6
f 117/1/6 118/1/6 121/1/6
f 119/1/6 120/1/6 122/1/6
f 117/1/6 121/1/6 123/1/6
f 121/1/6 122/1/6 123/1/6
f 122/1/6 120/1/6 124/1/6
f 123/1/6 122/1/6 124/1/6
f 125/1/6 126/1/6 127/1/6
f 127/1/6 126/1/6 128/1/6
f 125/1/6 127/1/6 129/1/6
f 129/1/6 127/1/6 130/1/6
f 128/1/6 126/1/6 131/1/6
f 131/1/6 126/1/6 132/1/6
f 133/1/6 134/1/6 135/1/6
f 135/1/6 134/1/6 136/1/6
f 137/1/6 138/1/6 139/1/6
f 139/1/6 138/1/6 140/1/6
f 141/1/6 142/1/6 143/1/6
f 143/1/6 142/1/6 144/1/6
